<svg width="16" height="16" viewBox="0 0 16 16" fill="none" xmlns="http://www.w3.org/2000/svg">
<path d="M7.9987 1.33398C6.25203 1.33398 4.83203 2.75398 4.83203 4.50065C4.83203 6.21398 6.17203 7.60065 7.9187 7.66065C7.97203 7.65398 8.02536 7.65398 8.06536 7.66065C8.0787 7.66065 8.08536 7.66065 8.0987 7.66065C8.10536 7.66065 8.10536 7.66065 8.11203 7.66065C9.8187 7.60065 11.1587 6.21398 11.1654 4.50065C11.1654 2.75398 9.74536 1.33398 7.9987 1.33398Z" fill="#999999"/>
<path d="M11.3886 9.43391C9.52859 8.19391 6.49526 8.19391 4.62193 9.43391C3.77526 10.0006 3.30859 10.7672 3.30859 11.5872C3.30859 12.4072 3.77526 13.1672 4.61526 13.7272C5.54859 14.3539 6.77526 14.6672 8.00193 14.6672C9.22859 14.6672 10.4553 14.3539 11.3886 13.7272C12.2286 13.1606 12.6953 12.4006 12.6953 11.5739C12.6886 10.7539 12.2286 9.99391 11.3886 9.43391Z" fill="#999999"/>
</svg>
